<svg aria-roledescription="er" role="graphics-document document" viewBox="0 0 182.8125 242" style="max-width: 182.812px; background-color: white;" xmlns:xlink="http://www.w3.org/1999/xlink" xmlns="http://www.w3.org/2000/svg" width="100%" id="mermaid-0"><style>#mermaid-0{font-family:"trebuchet ms",verdana,arial,sans-serif;font-size:16px;fill:#000000;}#mermaid-0 .error-icon{fill:#552222;}#mermaid-0 .error-text{fill:#552222;stroke:#552222;}#mermaid-0 .edge-thickness-normal{stroke-width:2px;}#mermaid-0 .edge-thickness-thick{stroke-width:3.5px;}#mermaid-0 .edge-pattern-solid{stroke-dasharray:0;}#mermaid-0 .edge-pattern-dashed{stroke-dasharray:3;}#mermaid-0 .edge-pattern-dotted{stroke-dasharray:2;}#mermaid-0 .marker{fill:#000000;stroke:#000000;}#mermaid-0 .marker.cross{stroke:#000000;}#mermaid-0 svg{font-family:"trebuchet ms",verdana,arial,sans-serif;font-size:16px;}#mermaid-0 .entityBox{fill:#cde498;stroke:#13540c;}#mermaid-0 .attributeBoxOdd{fill:#ffffff;stroke:#13540c;}#mermaid-0 .attributeBoxEven{fill:#f2f2f2;stroke:#13540c;}#mermaid-0 .relationshipLabelBox{fill:hsl(78.1578947368, 58.4615384615%, 84.5098039216%);opacity:0.7;background-color:hsl(78.1578947368, 58.4615384615%, 84.5098039216%);}#mermaid-0 .relationshipLabelBox rect{opacity:0.5;}#mermaid-0 .relationshipLine{stroke:#000000;}#mermaid-0 .entityTitleText{text-anchor:middle;font-size:18px;fill:#000000;}#mermaid-0 :root{--mermaid-font-family:"trebuchet ms",verdana,arial,sans-serif;}</style><g/><defs><marker orient="auto" markerHeight="18" markerWidth="18" refY="9" refX="0" id="ONLY_ONE_START"><path d="M9,0 L9,18 M15,0 L15,18" fill="none" stroke="gray"/></marker></defs><defs><marker orient="auto" markerHeight="18" markerWidth="18" refY="9" refX="18" id="ONLY_ONE_END"><path d="M3,0 L3,18 M9,0 L9,18" fill="none" stroke="gray"/></marker></defs><defs><marker orient="auto" markerHeight="18" markerWidth="30" refY="9" refX="0" id="ZERO_OR_ONE_START"><circle r="6" cy="9" cx="21" fill="white" stroke="gray"/><path d="M9,0 L9,18" fill="none" stroke="gray"/></marker></defs><defs><marker orient="auto" markerHeight="18" markerWidth="30" refY="9" refX="30" id="ZERO_OR_ONE_END"><circle r="6" cy="9" cx="9" fill="white" stroke="gray"/><path d="M21,0 L21,18" fill="none" stroke="gray"/></marker></defs><defs><marker orient="auto" markerHeight="36" markerWidth="45" refY="18" refX="18" id="ONE_OR_MORE_START"><path d="M0,18 Q 18,0 36,18 Q 18,36 0,18 M42,9 L42,27" fill="none" stroke="gray"/></marker></defs><defs><marker orient="auto" markerHeight="36" markerWidth="45" refY="18" refX="27" id="ONE_OR_MORE_END"><path d="M3,9 L3,27 M9,18 Q27,0 45,18 Q27,36 9,18" fill="none" stroke="gray"/></marker></defs><defs><marker orient="auto" markerHeight="36" markerWidth="57" refY="18" refX="18" id="ZERO_OR_MORE_START"><circle r="6" cy="18" cx="48" fill="white" stroke="gray"/><path d="M0,18 Q18,0 36,18 Q18,36 0,18" fill="none" stroke="gray"/></marker></defs><defs><marker orient="auto" markerHeight="36" markerWidth="57" refY="18" refX="39" id="ZERO_OR_MORE_END"><circle r="6" cy="18" cx="9" fill="white" stroke="gray"/><path d="M21,18 Q39,0 57,18 Q39,36 21,18" fill="none" stroke="gray"/></marker></defs><g transform="translate(20,20 )" id="entity-User-818c511a-4a32-5484-ba70-875d765a9175"><rect height="202" width="142.8125" y="0" x="0" class="er entityBox"/><text style="dominant-baseline: middle; text-anchor: middle; font-size: 12px;" transform="translate(71.40625,12)" y="0" x="0" id="text-entity-User-818c511a-4a32-5484-ba70-875d765a9175" class="er entityLabel">User</text><rect height="23" width="36.484375" y="24" x="0" class="er attributeBoxOdd"/><text style="dominant-baseline: middle; font-size: 10.2px;" transform="translate(5,35.5)" y="0" x="0" id="text-entity-User-818c511a-4a32-5484-ba70-875d765a9175-attr-1-type" class="er entityLabel">String</text><rect height="23" width="83.328125" y="24" x="36.484375" class="er attributeBoxOdd"/><text style="dominant-baseline: middle; font-size: 10.2px;" transform="translate(41.484375,35.5)" y="0" x="0" id="text-entity-User-818c511a-4a32-5484-ba70-875d765a9175-attr-1-name" class="er entityLabel">id</text><rect height="23" width="23" y="24" x="119.8125" class="er attributeBoxOdd"/><text style="dominant-baseline: middle; font-size: 10.2px;" transform="translate(124.8125,35.5)" y="0" x="0" id="text-entity-User-818c511a-4a32-5484-ba70-875d765a9175-attr-1-comment" class="er entityLabel">🗝️</text><rect height="22" width="36.484375" y="47" x="0" class="er attributeBoxEven"/><text style="dominant-baseline: middle; font-size: 10.2px;" transform="translate(5,58)" y="0" x="0" id="text-entity-User-818c511a-4a32-5484-ba70-875d765a9175-attr-2-type" class="er entityLabel">String</text><rect height="22" width="83.328125" y="47" x="36.484375" class="er attributeBoxEven"/><text style="dominant-baseline: middle; font-size: 10.2px;" transform="translate(41.484375,58)" y="0" x="0" id="text-entity-User-818c511a-4a32-5484-ba70-875d765a9175-attr-2-name" class="er entityLabel">name</text><rect height="22" width="23" y="47" x="119.8125" class="er attributeBoxEven"/><text style="dominant-baseline: middle; font-size: 10.2px;" transform="translate(124.8125,58)" y="0" x="0" id="text-entity-User-818c511a-4a32-5484-ba70-875d765a9175-attr-2-comment" class="er entityLabel"/><rect height="22" width="36.484375" y="69" x="0" class="er attributeBoxOdd"/><text style="dominant-baseline: middle; font-size: 10.2px;" transform="translate(5,80)" y="0" x="0" id="text-entity-User-818c511a-4a32-5484-ba70-875d765a9175-attr-3-type" class="er entityLabel">String</text><rect height="22" width="83.328125" y="69" x="36.484375" class="er attributeBoxOdd"/><text style="dominant-baseline: middle; font-size: 10.2px;" transform="translate(41.484375,80)" y="0" x="0" id="text-entity-User-818c511a-4a32-5484-ba70-875d765a9175-attr-3-name" class="er entityLabel">email</text><rect height="22" width="23" y="69" x="119.8125" class="er attributeBoxOdd"/><text style="dominant-baseline: middle; font-size: 10.2px;" transform="translate(124.8125,80)" y="0" x="0" id="text-entity-User-818c511a-4a32-5484-ba70-875d765a9175-attr-3-comment" class="er entityLabel"/><rect height="22" width="36.484375" y="91" x="0" class="er attributeBoxEven"/><text style="dominant-baseline: middle; font-size: 10.2px;" transform="translate(5,102)" y="0" x="0" id="text-entity-User-818c511a-4a32-5484-ba70-875d765a9175-attr-4-type" class="er entityLabel">String</text><rect height="22" width="83.328125" y="91" x="36.484375" class="er attributeBoxEven"/><text style="dominant-baseline: middle; font-size: 10.2px;" transform="translate(41.484375,102)" y="0" x="0" id="text-entity-User-818c511a-4a32-5484-ba70-875d765a9175-attr-4-name" class="er entityLabel">hashedPassword</text><rect height="22" width="23" y="91" x="119.8125" class="er attributeBoxEven"/><text style="dominant-baseline: middle; font-size: 10.2px;" transform="translate(124.8125,102)" y="0" x="0" id="text-entity-User-818c511a-4a32-5484-ba70-875d765a9175-attr-4-comment" class="er entityLabel"/><rect height="22" width="36.484375" y="113" x="0" class="er attributeBoxOdd"/><text style="dominant-baseline: middle; font-size: 10.2px;" transform="translate(5,124)" y="0" x="0" id="text-entity-User-818c511a-4a32-5484-ba70-875d765a9175-attr-5-type" class="er entityLabel">String</text><rect height="22" width="83.328125" y="113" x="36.484375" class="er attributeBoxOdd"/><text style="dominant-baseline: middle; font-size: 10.2px;" transform="translate(41.484375,124)" y="0" x="0" id="text-entity-User-818c511a-4a32-5484-ba70-875d765a9175-attr-5-name" class="er entityLabel">roles</text><rect height="22" width="23" y="113" x="119.8125" class="er attributeBoxOdd"/><text style="dominant-baseline: middle; font-size: 10.2px;" transform="translate(124.8125,124)" y="0" x="0" id="text-entity-User-818c511a-4a32-5484-ba70-875d765a9175-attr-5-comment" class="er entityLabel"/><rect height="22" width="36.484375" y="135" x="0" class="er attributeBoxEven"/><text style="dominant-baseline: middle; font-size: 10.2px;" transform="translate(5,146)" y="0" x="0" id="text-entity-User-818c511a-4a32-5484-ba70-875d765a9175-attr-6-type" class="er entityLabel">String</text><rect height="22" width="83.328125" y="135" x="36.484375" class="er attributeBoxEven"/><text style="dominant-baseline: middle; font-size: 10.2px;" transform="translate(41.484375,146)" y="0" x="0" id="text-entity-User-818c511a-4a32-5484-ba70-875d765a9175-attr-6-name" class="er entityLabel">createdAt</text><rect height="22" width="23" y="135" x="119.8125" class="er attributeBoxEven"/><text style="dominant-baseline: middle; font-size: 10.2px;" transform="translate(124.8125,146)" y="0" x="0" id="text-entity-User-818c511a-4a32-5484-ba70-875d765a9175-attr-6-comment" class="er entityLabel"/><rect height="22" width="36.484375" y="157" x="0" class="er attributeBoxOdd"/><text style="dominant-baseline: middle; font-size: 10.2px;" transform="translate(5,168)" y="0" x="0" id="text-entity-User-818c511a-4a32-5484-ba70-875d765a9175-attr-7-type" class="er entityLabel">String</text><rect height="22" width="83.328125" y="157" x="36.484375" class="er attributeBoxOdd"/><text style="dominant-baseline: middle; font-size: 10.2px;" transform="translate(41.484375,168)" y="0" x="0" id="text-entity-User-818c511a-4a32-5484-ba70-875d765a9175-attr-7-name" class="er entityLabel">updatedAt</text><rect height="22" width="23" y="157" x="119.8125" class="er attributeBoxOdd"/><text style="dominant-baseline: middle; font-size: 10.2px;" transform="translate(124.8125,168)" y="0" x="0" id="text-entity-User-818c511a-4a32-5484-ba70-875d765a9175-attr-7-comment" class="er entityLabel"/><rect height="23" width="36.484375" y="179" x="0" class="er attributeBoxEven"/><text style="dominant-baseline: middle; font-size: 10.2px;" transform="translate(5,190.5)" y="0" x="0" id="text-entity-User-818c511a-4a32-5484-ba70-875d765a9175-attr-8-type" class="er entityLabel">String</text><rect height="23" width="83.328125" y="179" x="36.484375" class="er attributeBoxEven"/><text style="dominant-baseline: middle; font-size: 10.2px;" transform="translate(41.484375,190.5)" y="0" x="0" id="text-entity-User-818c511a-4a32-5484-ba70-875d765a9175-attr-8-name" class="er entityLabel">deletedAt</text><rect height="23" width="23" y="179" x="119.8125" class="er attributeBoxEven"/><text style="dominant-baseline: middle; font-size: 10.2px;" transform="translate(124.8125,190.5)" y="0" x="0" id="text-entity-User-818c511a-4a32-5484-ba70-875d765a9175-attr-8-comment" class="er entityLabel">❓</text></g></svg>